<svg width="240" height="48" viewBox="0 0 240 48" fill="none" xmlns="http://www.w3.org/2000/svg">
  <!-- SABISCORE Wordmark v2 - Enhanced with Trophy Icon -->
  <defs>
    <linearGradient id="wordmarkIconGradient" x1="16" y1="8" x2="16" y2="40" gradientUnits="userSpaceOnUse">
      <stop offset="0%" stop-color="#00D4FF"/>
      <stop offset="100%" stop-color="#0095CC"/>
    </linearGradient>
  </defs>
  
  <!-- Compact Icon (32x32 positioned left) -->
  <g transform="translate(0, 8)">
    <!-- Shield -->
    <path d="M16 0L2 3.5V12C2 18 6 22.5 16 24C26 22.5 30 18 30 12V3.5L16 0Z" 
          fill="url(#wordmarkIconGradient)" opacity="0.95"/>
    
    <!-- Inner Border -->
    <path d="M16 3L6 5.5V11C6 15.5 9.5 19 16 20.5C22.5 19 26 15.5 26 11V5.5L16 3Z" 
          fill="#0F0F0F" stroke="#00D4FF" stroke-width="0.5"/>
    
    <!-- Trophy -->
    <path d="M16 9C17.5 9 18.5 10 18.5 11.5V14.5C18.5 16 17.5 17 16 17C14.5 17 13.5 16 13.5 14.5V11.5C13.5 10 14.5 9 16 9Z" 
          fill="#FFFFFF"/>
    <rect x="15.2" y="17" width="1.6" height="2.5" rx="0.3" fill="#FFFFFF"/>
    <path d="M14 19.5H18L17.5 21H14.5L14 19.5Z" fill="#FFFFFF"/>
    
    <!-- Football -->
    <circle cx="16" cy="12.5" r="2" fill="#00D4FF"/>
    <circle cx="16" cy="12.5" r="0.6" fill="#FFFFFF"/>
  </g>
  
  <!-- SABISCORE Text (Montserrat Black) -->
  <text x="38" y="33" 
        font-family="'Montserrat', system-ui, -apple-system, 'Segoe UI', sans-serif" 
        font-size="28" 
        font-weight="900" 
        letter-spacing="-0.5px" 
        fill="#FFFFFF">SABISCORE</text>
  
  <!-- Tagline -->
  <text x="38" y="44" 
        font-family="'Inter', system-ui, sans-serif" 
        font-size="9" 
        font-weight="500" 
        letter-spacing="0.5px" 
        fill="#A0A0A0">LIVE SCORES • ZERO ADS</text>
</svg>
