<svg width="24" height="24" viewBox="0 0 24 24" fill="none" xmlns="http://www.w3.org/2000/svg">
  <!-- SABISCORE Monogram v2 - Favicon Optimized -->
  <defs>
    <linearGradient id="monoGradient" x1="12" y1="2" x2="12" y2="22" gradientUnits="userSpaceOnUse">
      <stop offset="0%" stop-color="#00D4FF"/>
      <stop offset="100%" stop-color="#0095CC"/>
    </linearGradient>
  </defs>
  
  <!-- Rounded Background -->
  <rect width="24" height="24" rx="6" fill="#0F0F0F"/>
  
  <!-- Shield -->
  <path d="M12 4L5 6.5V12C5 15.5 7.5 18.5 12 20C16.5 18.5 19 15.5 19 12V6.5L12 4Z" 
        fill="url(#monoGradient)" opacity="0.95"/>
  
  <!-- Inner Shield -->
  <path d="M12 6L7 7.8V11.5C7 14 9 16.5 12 17.5C15 16.5 17 14 17 11.5V7.8L12 6Z" 
        fill="#0F0F0F" stroke="#00D4FF" stroke-width="0.5"/>
  
  <!-- Trophy -->
  <path d="M12 9.5C13 9.5 13.8 10.2 13.8 11V13C13.8 13.8 13 14.5 12 14.5C11 14.5 10.2 13.8 10.2 13V11C10.2 10.2 11 9.5 12 9.5Z" 
        fill="#FFFFFF"/>
  <rect x="11.4" y="14.5" width="1.2" height="1.8" rx="0.2" fill="#FFFFFF"/>
  <path d="M10.5 16.3H13.5L13.2 17.5H10.8L10.5 16.3Z" fill="#FFFFFF"/>
  
  <!-- Football Detail -->
  <circle cx="12" cy="11.8" r="1.3" fill="#00D4FF"/>
  <circle cx="12" cy="11.8" r="0.4" fill="#FFFFFF"/>
</svg>
